<mxfile host="Electron" modified="2025-03-15T11:59:41.548Z" agent="Mozilla/5.0 (Windows NT 10.0; Win64; x64) AppleWebKit/537.36 (KHTML, like Gecko) draw.io/24.4.13 Chrome/124.0.6367.207 Electron/30.0.6 Safari/537.36" etag="fSNKd1Yju4BgtspqTwXJ" version="24.4.13" type="device">
  <diagram id="wFE0QG_FPsp0jaGvCLVb" name="Page-1">
    <mxGraphModel dx="2933" dy="1773" grid="1" gridSize="10" guides="1" tooltips="1" connect="1" arrows="1" fold="1" page="1" pageScale="1" pageWidth="2336" pageHeight="1654" math="0" shadow="0">
      <root>
        <mxCell id="0" />
        <mxCell id="1" parent="0" />
        <mxCell id="RzglcEqCEudu6f15xoFn-23" value="&lt;span style=&quot;font-size: 65px;&quot;&gt;Architecture Style&lt;/span&gt;" style="text;html=1;align=center;verticalAlign=middle;resizable=0;points=[];autosize=1;strokeColor=none;fillColor=none;" vertex="1" parent="1">
          <mxGeometry x="25" y="120" width="530" height="90" as="geometry" />
        </mxCell>
        <mxCell id="RzglcEqCEudu6f15xoFn-27" value="&lt;font style=&quot;font-size: 30px;&quot;&gt;Client&lt;/font&gt;" style="html=1;whiteSpace=wrap;" vertex="1" parent="1">
          <mxGeometry x="180" y="622.5" width="180" height="100" as="geometry" />
        </mxCell>
        <mxCell id="RzglcEqCEudu6f15xoFn-28" value="Async" style="endArrow=block;endSize=16;endFill=0;html=1;rounded=0;fontSize=19;" edge="1" parent="1">
          <mxGeometry width="160" relative="1" as="geometry">
            <mxPoint x="360" y="672.5" as="sourcePoint" />
            <mxPoint x="520" y="672.5" as="targetPoint" />
          </mxGeometry>
        </mxCell>
        <mxCell id="RzglcEqCEudu6f15xoFn-29" value="&lt;font style=&quot;font-size: 30px;&quot;&gt;Get Way&lt;/font&gt;" style="html=1;whiteSpace=wrap;" vertex="1" parent="1">
          <mxGeometry x="520" y="622.5" width="210" height="100" as="geometry" />
        </mxCell>
        <mxCell id="RzglcEqCEudu6f15xoFn-30" value="&lt;span style=&quot;font-size: 30px;&quot;&gt;Blog&lt;/span&gt;" style="html=1;whiteSpace=wrap;" vertex="1" parent="1">
          <mxGeometry x="1030" y="332.5" width="270" height="90" as="geometry" />
        </mxCell>
        <mxCell id="RzglcEqCEudu6f15xoFn-31" value="&lt;span style=&quot;font-size: 30px;&quot;&gt;Chat&lt;/span&gt;" style="html=1;whiteSpace=wrap;" vertex="1" parent="1">
          <mxGeometry x="1030" y="442.5" width="270" height="90" as="geometry" />
        </mxCell>
        <mxCell id="RzglcEqCEudu6f15xoFn-32" value="&lt;span style=&quot;font-size: 30px;&quot;&gt;Shop&lt;/span&gt;" style="html=1;whiteSpace=wrap;" vertex="1" parent="1">
          <mxGeometry x="1030" y="552.5" width="270" height="100" as="geometry" />
        </mxCell>
        <mxCell id="RzglcEqCEudu6f15xoFn-33" value="&lt;span style=&quot;font-size: 30px;&quot;&gt;Post &amp;amp; Story&lt;/span&gt;" style="html=1;whiteSpace=wrap;" vertex="1" parent="1">
          <mxGeometry x="1030" y="672.5" width="270" height="100" as="geometry" />
        </mxCell>
        <mxCell id="RzglcEqCEudu6f15xoFn-34" value="&lt;span style=&quot;font-size: 30px;&quot;&gt;To Do&amp;nbsp;&lt;/span&gt;" style="html=1;whiteSpace=wrap;" vertex="1" parent="1">
          <mxGeometry x="1030" y="792.5" width="270" height="100" as="geometry" />
        </mxCell>
        <mxCell id="RzglcEqCEudu6f15xoFn-35" value="&lt;span style=&quot;font-size: 30px;&quot;&gt;Supporting&lt;/span&gt;" style="html=1;whiteSpace=wrap;" vertex="1" parent="1">
          <mxGeometry x="1030" y="912.5" width="270" height="100" as="geometry" />
        </mxCell>
        <mxCell id="RzglcEqCEudu6f15xoFn-36" value="" style="endArrow=classic;html=1;rounded=0;entryX=0;entryY=0.5;entryDx=0;entryDy=0;exitX=1;exitY=0;exitDx=0;exitDy=0;" edge="1" parent="1" source="RzglcEqCEudu6f15xoFn-29" target="RzglcEqCEudu6f15xoFn-30">
          <mxGeometry relative="1" as="geometry">
            <mxPoint x="730" y="672.5" as="sourcePoint" />
            <mxPoint x="830" y="672.5" as="targetPoint" />
          </mxGeometry>
        </mxCell>
        <mxCell id="RzglcEqCEudu6f15xoFn-37" value="&lt;font style=&quot;font-size: 19px;&quot;&gt;GRPC&lt;/font&gt;" style="edgeLabel;resizable=0;html=1;;align=center;verticalAlign=middle;" connectable="0" vertex="1" parent="RzglcEqCEudu6f15xoFn-36">
          <mxGeometry relative="1" as="geometry" />
        </mxCell>
        <mxCell id="RzglcEqCEudu6f15xoFn-39" value="" style="endArrow=classic;html=1;rounded=0;entryX=0;entryY=0.5;entryDx=0;entryDy=0;exitX=1;exitY=0;exitDx=0;exitDy=0;" edge="1" parent="1" target="RzglcEqCEudu6f15xoFn-31">
          <mxGeometry relative="1" as="geometry">
            <mxPoint x="730" y="645" as="sourcePoint" />
            <mxPoint x="1030" y="470" as="targetPoint" />
          </mxGeometry>
        </mxCell>
        <mxCell id="RzglcEqCEudu6f15xoFn-40" value="&lt;font style=&quot;font-size: 19px;&quot;&gt;GRPC&lt;/font&gt;" style="edgeLabel;resizable=0;html=1;;align=center;verticalAlign=middle;" connectable="0" vertex="1" parent="RzglcEqCEudu6f15xoFn-39">
          <mxGeometry relative="1" as="geometry" />
        </mxCell>
        <mxCell id="RzglcEqCEudu6f15xoFn-42" value="" style="endArrow=classic;html=1;rounded=0;entryX=0;entryY=0.5;entryDx=0;entryDy=0;exitX=1;exitY=0;exitDx=0;exitDy=0;" edge="1" parent="1" target="RzglcEqCEudu6f15xoFn-32">
          <mxGeometry relative="1" as="geometry">
            <mxPoint x="730" y="667.5" as="sourcePoint" />
            <mxPoint x="1030" y="492.5" as="targetPoint" />
          </mxGeometry>
        </mxCell>
        <mxCell id="RzglcEqCEudu6f15xoFn-43" value="&lt;font style=&quot;font-size: 19px;&quot;&gt;GRPC&lt;/font&gt;" style="edgeLabel;resizable=0;html=1;;align=center;verticalAlign=middle;" connectable="0" vertex="1" parent="RzglcEqCEudu6f15xoFn-42">
          <mxGeometry relative="1" as="geometry" />
        </mxCell>
        <mxCell id="RzglcEqCEudu6f15xoFn-44" value="" style="endArrow=classic;html=1;rounded=0;entryX=-0.007;entryY=0.613;entryDx=0;entryDy=0;exitX=1;exitY=0;exitDx=0;exitDy=0;entryPerimeter=0;" edge="1" parent="1" target="RzglcEqCEudu6f15xoFn-33">
          <mxGeometry relative="1" as="geometry">
            <mxPoint x="730" y="687.5" as="sourcePoint" />
            <mxPoint x="1030" y="512.5" as="targetPoint" />
          </mxGeometry>
        </mxCell>
        <mxCell id="RzglcEqCEudu6f15xoFn-45" value="&lt;font style=&quot;font-size: 19px;&quot;&gt;GRPC&lt;/font&gt;" style="edgeLabel;resizable=0;html=1;;align=center;verticalAlign=middle;" connectable="0" vertex="1" parent="RzglcEqCEudu6f15xoFn-44">
          <mxGeometry relative="1" as="geometry" />
        </mxCell>
        <mxCell id="RzglcEqCEudu6f15xoFn-46" value="" style="endArrow=classic;html=1;rounded=0;entryX=0;entryY=0.5;entryDx=0;entryDy=0;exitX=1;exitY=0;exitDx=0;exitDy=0;" edge="1" parent="1" target="RzglcEqCEudu6f15xoFn-34">
          <mxGeometry relative="1" as="geometry">
            <mxPoint x="730" y="707.5" as="sourcePoint" />
            <mxPoint x="1030" y="532.5" as="targetPoint" />
          </mxGeometry>
        </mxCell>
        <mxCell id="RzglcEqCEudu6f15xoFn-47" value="&lt;font style=&quot;font-size: 19px;&quot;&gt;GRPC&lt;/font&gt;" style="edgeLabel;resizable=0;html=1;;align=center;verticalAlign=middle;" connectable="0" vertex="1" parent="RzglcEqCEudu6f15xoFn-46">
          <mxGeometry relative="1" as="geometry" />
        </mxCell>
        <mxCell id="RzglcEqCEudu6f15xoFn-48" value="" style="endArrow=classic;html=1;rounded=0;entryX=0;entryY=0.5;entryDx=0;entryDy=0;exitX=1;exitY=0;exitDx=0;exitDy=0;" edge="1" parent="1" target="RzglcEqCEudu6f15xoFn-35">
          <mxGeometry relative="1" as="geometry">
            <mxPoint x="730" y="722.5" as="sourcePoint" />
            <mxPoint x="1030" y="547.5" as="targetPoint" />
          </mxGeometry>
        </mxCell>
        <mxCell id="RzglcEqCEudu6f15xoFn-49" value="&lt;font style=&quot;font-size: 19px;&quot;&gt;GRPC&lt;/font&gt;" style="edgeLabel;resizable=0;html=1;;align=center;verticalAlign=middle;" connectable="0" vertex="1" parent="RzglcEqCEudu6f15xoFn-48">
          <mxGeometry relative="1" as="geometry" />
        </mxCell>
        <mxCell id="RzglcEqCEudu6f15xoFn-70" value="" style="edgeStyle=orthogonalEdgeStyle;rounded=0;orthogonalLoop=1;jettySize=auto;html=1;" edge="1" parent="1" source="RzglcEqCEudu6f15xoFn-50" target="RzglcEqCEudu6f15xoFn-69">
          <mxGeometry relative="1" as="geometry" />
        </mxCell>
        <mxCell id="RzglcEqCEudu6f15xoFn-50" value="&lt;font style=&quot;font-size: 15px;&quot;&gt;Sql Server&lt;/font&gt;" style="shape=cylinder3;whiteSpace=wrap;html=1;boundedLbl=1;backgroundOutline=1;size=15;" vertex="1" parent="1">
          <mxGeometry x="1400" y="330" width="80" height="95" as="geometry" />
        </mxCell>
        <mxCell id="RzglcEqCEudu6f15xoFn-52" style="edgeStyle=orthogonalEdgeStyle;rounded=0;orthogonalLoop=1;jettySize=auto;html=1;entryX=0;entryY=0.5;entryDx=0;entryDy=0;entryPerimeter=0;" edge="1" parent="1" source="RzglcEqCEudu6f15xoFn-30" target="RzglcEqCEudu6f15xoFn-50">
          <mxGeometry relative="1" as="geometry" />
        </mxCell>
        <mxCell id="RzglcEqCEudu6f15xoFn-68" value="" style="edgeStyle=orthogonalEdgeStyle;rounded=0;orthogonalLoop=1;jettySize=auto;html=1;" edge="1" parent="1" source="RzglcEqCEudu6f15xoFn-53" target="RzglcEqCEudu6f15xoFn-67">
          <mxGeometry relative="1" as="geometry" />
        </mxCell>
        <mxCell id="RzglcEqCEudu6f15xoFn-53" value="&lt;span style=&quot;font-size: 15px;&quot;&gt;Sql Server&lt;/span&gt;" style="shape=cylinder3;whiteSpace=wrap;html=1;boundedLbl=1;backgroundOutline=1;size=15;" vertex="1" parent="1">
          <mxGeometry x="1400" y="442.5" width="80" height="95" as="geometry" />
        </mxCell>
        <mxCell id="RzglcEqCEudu6f15xoFn-54" style="edgeStyle=orthogonalEdgeStyle;rounded=0;orthogonalLoop=1;jettySize=auto;html=1;entryX=0;entryY=0.5;entryDx=0;entryDy=0;entryPerimeter=0;" edge="1" parent="1" target="RzglcEqCEudu6f15xoFn-53">
          <mxGeometry relative="1" as="geometry">
            <mxPoint x="1300" y="490" as="sourcePoint" />
          </mxGeometry>
        </mxCell>
        <mxCell id="RzglcEqCEudu6f15xoFn-55" value="&lt;font style=&quot;font-size: 15px;&quot;&gt;Sql Server&lt;/font&gt;" style="shape=cylinder3;whiteSpace=wrap;html=1;boundedLbl=1;backgroundOutline=1;size=15;" vertex="1" parent="1">
          <mxGeometry x="1400" y="557.5" width="80" height="95" as="geometry" />
        </mxCell>
        <mxCell id="RzglcEqCEudu6f15xoFn-56" style="edgeStyle=orthogonalEdgeStyle;rounded=0;orthogonalLoop=1;jettySize=auto;html=1;entryX=0;entryY=0.5;entryDx=0;entryDy=0;entryPerimeter=0;" edge="1" parent="1" target="RzglcEqCEudu6f15xoFn-55">
          <mxGeometry relative="1" as="geometry">
            <mxPoint x="1300" y="605" as="sourcePoint" />
          </mxGeometry>
        </mxCell>
        <mxCell id="RzglcEqCEudu6f15xoFn-64" value="" style="edgeStyle=orthogonalEdgeStyle;rounded=0;orthogonalLoop=1;jettySize=auto;html=1;" edge="1" parent="1" source="RzglcEqCEudu6f15xoFn-57" target="RzglcEqCEudu6f15xoFn-63">
          <mxGeometry relative="1" as="geometry" />
        </mxCell>
        <mxCell id="RzglcEqCEudu6f15xoFn-57" value="&lt;font style=&quot;font-size: 15px;&quot;&gt;Sql Server&lt;/font&gt;" style="shape=cylinder3;whiteSpace=wrap;html=1;boundedLbl=1;backgroundOutline=1;size=15;" vertex="1" parent="1">
          <mxGeometry x="1400" y="675" width="80" height="95" as="geometry" />
        </mxCell>
        <mxCell id="RzglcEqCEudu6f15xoFn-58" style="edgeStyle=orthogonalEdgeStyle;rounded=0;orthogonalLoop=1;jettySize=auto;html=1;entryX=0;entryY=0.5;entryDx=0;entryDy=0;entryPerimeter=0;" edge="1" parent="1" target="RzglcEqCEudu6f15xoFn-57">
          <mxGeometry relative="1" as="geometry">
            <mxPoint x="1300" y="722.5" as="sourcePoint" />
          </mxGeometry>
        </mxCell>
        <mxCell id="RzglcEqCEudu6f15xoFn-59" value="&lt;font style=&quot;font-size: 15px;&quot;&gt;Sql Server&lt;/font&gt;" style="shape=cylinder3;whiteSpace=wrap;html=1;boundedLbl=1;backgroundOutline=1;size=15;" vertex="1" parent="1">
          <mxGeometry x="1400" y="802.5" width="80" height="95" as="geometry" />
        </mxCell>
        <mxCell id="RzglcEqCEudu6f15xoFn-60" style="edgeStyle=orthogonalEdgeStyle;rounded=0;orthogonalLoop=1;jettySize=auto;html=1;entryX=0;entryY=0.5;entryDx=0;entryDy=0;entryPerimeter=0;" edge="1" parent="1" target="RzglcEqCEudu6f15xoFn-59">
          <mxGeometry relative="1" as="geometry">
            <mxPoint x="1300" y="850" as="sourcePoint" />
          </mxGeometry>
        </mxCell>
        <mxCell id="RzglcEqCEudu6f15xoFn-61" value="&lt;span style=&quot;font-size: 15px;&quot;&gt;Mogo DB&lt;/span&gt;" style="shape=cylinder3;whiteSpace=wrap;html=1;boundedLbl=1;backgroundOutline=1;size=15;" vertex="1" parent="1">
          <mxGeometry x="1400" y="912.5" width="80" height="95" as="geometry" />
        </mxCell>
        <mxCell id="RzglcEqCEudu6f15xoFn-62" style="edgeStyle=orthogonalEdgeStyle;rounded=0;orthogonalLoop=1;jettySize=auto;html=1;entryX=0;entryY=0.5;entryDx=0;entryDy=0;entryPerimeter=0;" edge="1" parent="1" target="RzglcEqCEudu6f15xoFn-61">
          <mxGeometry relative="1" as="geometry">
            <mxPoint x="1300" y="960" as="sourcePoint" />
          </mxGeometry>
        </mxCell>
        <mxCell id="RzglcEqCEudu6f15xoFn-63" value="&lt;span style=&quot;font-size: 15px;&quot;&gt;Mogo DB&lt;/span&gt;" style="shape=cylinder3;whiteSpace=wrap;html=1;boundedLbl=1;backgroundOutline=1;size=15;" vertex="1" parent="1">
          <mxGeometry x="1560" y="675" width="80" height="95" as="geometry" />
        </mxCell>
        <mxCell id="RzglcEqCEudu6f15xoFn-67" value="&lt;span style=&quot;font-size: 15px;&quot;&gt;Mogo DB&lt;/span&gt;" style="shape=cylinder3;whiteSpace=wrap;html=1;boundedLbl=1;backgroundOutline=1;size=15;" vertex="1" parent="1">
          <mxGeometry x="1560" y="442.5" width="80" height="95" as="geometry" />
        </mxCell>
        <mxCell id="RzglcEqCEudu6f15xoFn-69" value="&lt;font style=&quot;font-size: 15px;&quot;&gt;Sql Server&lt;/font&gt;" style="shape=cylinder3;whiteSpace=wrap;html=1;boundedLbl=1;backgroundOutline=1;size=15;" vertex="1" parent="1">
          <mxGeometry x="1560" y="330" width="80" height="95" as="geometry" />
        </mxCell>
        <mxCell id="RzglcEqCEudu6f15xoFn-71" value="&lt;span style=&quot;font-size: 30px;&quot;&gt;Events&lt;/span&gt;" style="html=1;whiteSpace=wrap;" vertex="1" parent="1">
          <mxGeometry x="1030" y="1032.5" width="270" height="100" as="geometry" />
        </mxCell>
        <mxCell id="RzglcEqCEudu6f15xoFn-72" value="&lt;span style=&quot;font-size: 15px;&quot;&gt;Sql Server&lt;/span&gt;" style="shape=cylinder3;whiteSpace=wrap;html=1;boundedLbl=1;backgroundOutline=1;size=15;" vertex="1" parent="1">
          <mxGeometry x="1400" y="1037.5" width="80" height="95" as="geometry" />
        </mxCell>
        <mxCell id="RzglcEqCEudu6f15xoFn-73" style="edgeStyle=orthogonalEdgeStyle;rounded=0;orthogonalLoop=1;jettySize=auto;html=1;entryX=0;entryY=0.5;entryDx=0;entryDy=0;entryPerimeter=0;" edge="1" parent="1" target="RzglcEqCEudu6f15xoFn-72">
          <mxGeometry relative="1" as="geometry">
            <mxPoint x="1300" y="1085" as="sourcePoint" />
          </mxGeometry>
        </mxCell>
      </root>
    </mxGraphModel>
  </diagram>
</mxfile>
